<svg width="1123" height="512" viewBox="0 0 1123 512" fill="none" xmlns="http://www.w3.org/2000/svg">
<path fill-rule="evenodd" clip-rule="evenodd" d="M260.464 512C383.734 512 465.327 444.606 480.032 432.459L480.035 432.457C481.272 431.435 482.036 430.805 482.31 430.639V224.213H241.761V332.421H353.567V368.573C330.082 384.335 292.294 400.887 254.196 400.887C174.587 400.887 130.75 347.523 130.75 250.623C130.75 160.652 174.939 111.111 255.181 111.111C303.182 111.111 337.586 134.094 349.579 174.158L353.42 187.019L479.145 164.446C477.899 161.517 476.668 156.899 475.105 151.044L475.105 151.042C463.722 108.379 434.807 0 255.182 0C100.173 0 0.0216064 100.478 0.0216064 254.418C0.0216064 410.292 102.247 512 260.464 512ZM1032 45C1032 20.147 1052.24 0 1077.2 0C1102.17 0 1122.41 20.147 1122.41 45V344C1122.41 368.853 1102.17 389 1077.2 389C1052.24 389 1032 368.853 1032 344V45ZM317.941 190H315.43V188H317.941V190ZM1077.2 422C1052.24 422 1032 442.147 1032 467C1032 491.853 1052.24 512 1077.2 512C1102.17 512 1122.41 491.853 1122.41 467C1122.41 442.147 1102.17 422 1077.2 422ZM996.259 256.63C996.259 413.529 904.112 512 755.799 512C606.69 512 514.073 414.379 514.073 258.856C514.073 97.401 603.967 0 754.533 0C903.642 0 996.259 98.954 996.259 256.63ZM755.49 111.113C681.767 111.113 641.168 162.455 641.168 255.678C641.168 346.601 683.901 400.888 755.49 400.889C827.521 400.889 868.841 347.51 868.841 254.419C868.841 162.002 828.58 111.113 755.49 111.113Z" fill="black"/>
</svg>
